# xmcd CD database file
#
# Track frame offsets:
#	150
#	20028
#	40048
#	61638
#	81645
#	103163
#	127017
#	146026
#	165676
#	192365
#	213963
#	239260
#
# Disc length: 3474 seconds
#
# Revision: 3
# Processed by: cddbd v1.5.1PL2 Copyright (c) Steve Scherf et al.
# Submitted via: CDex 1.51
#
DISCID=ac0d900c
DTITLE=’95−’05 歌バカ [CD2] - 平井堅
DYEAR=2005
DGENRE=Blues
TTITLE0=01 Miracles
TTITLE1=02 KISS OF LIFE
TTITLE2=03 Missin' you 〜It will break my hea
TTITLE3=04 Strawberry Sex
TTITLE4=05 大きな古時計
TTITLE5=06 Ring
TTITLE6=07 LIFE is…〜another story〜
TTITLE7=08 style
TTITLE8=09 瞳をとじて
TTITLE9=10 キミはともだち
TTITLE10=11 思いがかさなるその前に・・・
TTITLE11=12 POP STAR
EXTD=YEAR: 2005
EXTT0=
EXTT1=
EXTT2=
EXTT3=
EXTT4=
EXTT5=
EXTT6=
EXTT7=
EXTT8=
EXTT9=
EXTT10=
EXTT11=
PLAYORDER=
